<svg version="1.0" xmlns="http://www.w3.org/2000/svg" width="666.667" height="666.667" viewBox="0 0 500 500"><path d="M309.6 118c-.4 2-1.7 3.7-3.9 5-1.9 1.1-4 3.1-4.7 4.5-.7 1.4-1.6 2.5-2 2.5-.4 0-3.5 2.7-6.9 6.1-8.1 7.9-9.1 10.8-9.1 26.6 0 11.7-.2 12.7-2.7 17.1-1.5 2.6-13 15-25.6 27.6l-22.8 23 .3 4.5c.3 4.5.4 4.6 4.4 5.4l4.2.8 23.3-23.4c13-13 25.5-24.5 28.1-26 4.4-2.5 5.4-2.7 17.1-2.7 6.8 0 13.9-.5 15.8-1.1 2.2-.8 7.7-5.6 15.6-13.5 6.7-6.8 12.8-12.4 13.7-12.4 1.1 0 1.6-.9 1.6-2.8 0-2.5-.5-3-5.2-4.4-2.9-.9-9.2-2-14-2.3-8.4-.7-8.7-.8-12.5-4.7-3.6-3.7-3.9-4.4-5-13.6-2.5-20.5-2.2-19.2-5.8-19.2-2.8 0-3.3.4-3.9 3z"/><path d="M216.5 132c-2.7.4-7.7 1.9-11 3.3-3.3 1.3-9.3 3-13.3 3.7-5.5.9-8.2 1.9-10.5 4-1.8 1.5-4.9 3.3-6.9 3.9-2.1.7-5.6 2.8-7.9 4.7-2.2 1.9-4.5 3.4-5 3.4-1.2 0-20.9 19.8-20.9 21 0 .4-1.6 2.7-3.5 5s-4 5.9-4.6 8c-.6 2.1-2.4 5.3-4 7.1-2.1 2.4-3.1 5.1-3.9 10.3-2 11.9-3 14.6-5.7 14.6H117v21.5c0 20.9.1 21.5 2 21.5 2.5 0 3.6 2.7 5.7 13.7 1.1 6.1 2.3 9.3 4.4 11.9 1.6 2 3.4 5.4 3.9 7.5.6 2 2.6 5.6 4.5 7.9 1.9 2.3 3.5 4.6 3.5 5.1 0 1.4 19.2 19.9 24.7 23.8 2.6 1.9 6.6 4.1 8.8 5 2.2.8 5.4 2.7 7.1 4.1 2.2 1.9 5.5 3.1 12 4.4 10 2 12.4 3 12.4 5.1 0 1.3 3.5 1.5 23 1.5s23-.2 23-1.5c0-2.1 3-3.4 12.6-5.2 6.5-1.2 9.4-2.2 11.8-4.3 1.7-1.5 4.8-3.3 6.8-3.9 2.1-.7 5.6-2.8 7.9-4.7 2.2-1.9 4.5-3.4 4.9-3.4 1.4 0 19.8-18.7 21.4-21.7.7-1.5 2.3-3.6 3.5-4.7 1.1-1 2.7-4 3.6-6.7.9-2.6 2.9-6.4 4.5-8.4 2.1-2.6 3.1-5.5 4-10.8.6-4 2.5-11.1 4.2-15.9 2.9-8.5 3-9.2 2.6-22-.4-11.7-.8-14.1-3.2-19.8-1.5-3.6-3.8-7.6-5.1-8.9-2.4-2.4-2.5-2.5-10.2-1.3-10.5 1.7-11.1 2.4-7.6 9.2 2.8 5.3 2.8 5.7 2.8 23.5v18l-3.1 5.5c-1.7 3-3.7 7.7-4.3 10.5-.7 2.7-2.3 6.3-3.5 8-1.3 1.6-3.3 4.9-4.5 7.2-1.2 2.4-3.2 5-4.6 5.9-1.3.9-2.7 2.4-3 3.3-1.2 3.9-22.1 19.3-28 20.6-1.7.4-6.1 2.4-10 4.4l-7 3.6h-39l-6-3.2c-3.3-1.7-7.9-3.6-10.1-4.2-2.3-.6-5.6-2.2-7.5-3.6-1.9-1.4-4.8-3.2-6.6-4-3.5-1.6-22.3-20.2-22.3-22 0-.7-1.4-3.2-3.2-5.6-1.7-2.3-3.9-6.8-4.8-9.9-.9-3.1-3-7.9-4.6-10.6l-2.9-4.9v-38l3.1-6c1.7-3.3 3.9-8.5 4.8-11.6.9-3.1 2.3-6.2 3.2-7 .8-.7 2.6-3.4 3.9-5.9 2.4-4.8 19.9-23 22-23 .7 0 3.2-1.4 5.6-3.2 2.4-1.7 7-4 10.2-5 3.2-1 7.9-3 10.5-4.5 4.7-2.8 4.8-2.8 23.7-2.8 17.8 0 19.3.1 23.3 2.2 2.3 1.3 4.9 2.3 5.7 2.3 2.8 0 5.5-15.3 3.3-19-1.8-3.1-12-7.7-19.8-8.9-7.2-1.2-16.9-1.2-24.5-.1z"/><path d="M217 178.7c-8.7.4-10.3.9-13.8 3.8-1.7 1.4-4.9 3.2-7.2 4-3.6 1.3-6.1 3.2-13.2 10.3-7.1 7.1-9 9.6-10.3 13.3-.9 2.4-2.4 5.3-3.5 6.4-3.7 3.9-4.2 7.5-4.3 27 0 19.6.3 21.5 4.4 26 1 1.1 2.5 4 3.4 6.4.8 2.4 3.2 6.1 5.2 8.2 6 6 6.1 6.2 10.6 10.5 2.3 2.2 6 4.6 8.2 5.3 2.2.7 4.9 2.1 6 3.1 4.6 4 6.5 4.3 26.5 4.4 20.1 0 21.9-.3 26.5-4.5 1.1-1 4-2.5 6.4-3.4 3.7-1.3 6.2-3.2 13.3-10.3 7.1-7.1 9-9.5 10.3-13.1.8-2.3 2.6-5.7 4.1-7.7 2.5-3.2 2.8-4.7 3.5-15.1 1-13.8-.3-29.9-2.5-32.1-1.3-1.3-2.2-.7-8 5.2-12 12.4-11.1 10.8-13 24.6-1.9 14-1.7 13.5-17.1 28.1-5.2 4.9-22.3 6.8-36.9 4.1-7.5-1.4-11.4-4.2-21.1-15-4-4.4-4.6-5.7-5.6-12.3-1.2-7.9-.7-25.1 1-30.6.9-3.1 3-5.9 9.6-12.5 8.3-8.4 8.6-8.6 18.3-10.2 5-.9 10.6-1.6 12.3-1.6 2.9 0 7.3-2.9 12.9-8.5 8.9-8.9 9.4-9.6 7.9-11.1-1.6-1.6-15.4-3.5-22.9-3.2-2.5.1-7.4.3-11 .5z"/></svg>