<?xml version="1.0" standalone="no"?>
<!DOCTYPE svg PUBLIC "-//W3C//DTD SVG 20010904//EN"
 "http://www.w3.org/TR/2001/REC-SVG-20010904/DTD/svg10.dtd">
<svg version="1.0" xmlns="http://www.w3.org/2000/svg"
 width="500.000000pt" height="500.000000pt" viewBox="0 0 500.000000 500.000000"
 preserveAspectRatio="xMidYMid meet">
<metadata>
Created by potrace 1.11, written by Peter Selinger 2001-2013
</metadata>
<g transform="translate(0.000000,500.000000) scale(0.100000,-0.100000)"
fill="#000000" stroke="none">
<path d="M3096 3820 c-4 -20 -17 -37 -39 -50 -19 -11 -40 -31 -47 -45 -7 -14
-16 -25 -20 -25 -4 0 -35 -27 -69 -61 -81 -79 -91 -108 -91 -266 0 -117 -2
-127 -27 -171 -15 -26 -130 -150 -256 -276 l-228 -230 3 -45 c3 -45 4 -46 44
-54 l42 -8 233 234 c130 130 255 245 281 260 44 25 54 27 171 27 68 0 139 5
158 11 22 8 77 56 156 135 67 68 128 124 137 124 11 0 16 9 16 28 0 25 -5 30
-52 44 -29 9 -92 20 -140 23 -84 7 -87 8 -125 47 -36 37 -39 44 -50 136 -25
205 -22 192 -58 192 -28 0 -33 -4 -39 -30z"/>
<path d="M2165 3680 c-27 -4 -77 -19 -110 -33 -33 -13 -93 -30 -133 -37 -55
-9 -82 -19 -105 -40 -18 -15 -49 -33 -69 -39 -21 -7 -56 -28 -79 -47 -22 -19
-45 -34 -50 -34 -12 0 -209 -198 -209 -210 0 -4 -16 -27 -35 -50 -19 -23 -40
-59 -46 -80 -6 -21 -24 -53 -40 -71 -21 -24 -31 -51 -39 -103 -20 -119 -30
-146 -57 -146 l-23 0 0 -215 c0 -209 1 -215 20 -215 25 0 36 -27 57 -137 11
-61 23 -93 44 -119 16 -20 34 -54 39 -75 6 -20 26 -56 45 -79 19 -23 35 -46
35 -51 0 -14 192 -199 247 -238 26 -19 66 -41 88 -50 22 -8 54 -27 71 -41 22
-19 55 -31 120 -44 100 -20 124 -30 124 -51 0 -13 35 -15 230 -15 195 0 230 2
230 15 0 21 30 34 126 52 65 12 94 22 118 43 17 15 48 33 68 39 21 7 56 28 79
47 22 19 45 34 49 34 14 0 198 187 214 217 7 15 23 36 35 47 11 10 27 40 36
67 9 26 29 64 45 84 21 26 31 55 40 108 6 40 25 111 42 159 29 85 30 92 26
220 -4 117 -8 141 -32 198 -15 36 -38 76 -51 89 -24 24 -25 25 -102 13 -105
-17 -111 -24 -76 -92 28 -53 28 -57 28 -235 l0 -180 -31 -55 c-17 -30 -37 -77
-43 -105 -7 -27 -23 -63 -35 -80 -13 -16 -33 -49 -45 -72 -12 -24 -32 -50 -46
-59 -13 -9 -27 -24 -30 -33 -12 -39 -221 -193 -280 -206 -17 -4 -61 -24 -100
-44 l-70 -36 -195 0 -195 0 -60 32 c-33 17 -79 36 -101 42 -23 6 -56 22 -75
36 -19 14 -48 32 -66 40 -35 16 -223 202 -223 220 0 7 -14 32 -32 56 -17 23
-39 68 -48 99 -9 31 -30 79 -46 106 l-29 49 0 190 0 190 31 60 c17 33 39 85
48 116 9 31 23 62 32 70 8 7 26 34 39 59 24 48 199 230 220 230 7 0 32 14 56
32 24 17 70 40 102 50 32 10 79 30 105 45 47 28 48 28 237 28 178 0 193 -1
233 -22 23 -13 49 -23 57 -23 28 0 55 153 33 190 -18 31 -120 77 -198 89 -72
12 -169 12 -245 1z"/>
<path d="M2170 3213 c-87 -4 -103 -9 -138 -38 -17 -14 -49 -32 -72 -40 -36
-13 -61 -32 -132 -103 -71 -71 -90 -96 -103 -133 -9 -24 -24 -53 -35 -64 -37
-39 -42 -75 -43 -270 0 -196 3 -215 44 -260 10 -11 25 -40 34 -64 8 -24 32
-61 52 -82 60 -60 61 -62 106 -105 23 -22 60 -46 82 -53 22 -7 49 -21 60 -31
46 -40 65 -43 265 -44 201 0 219 3 265 45 11 10 40 25 64 34 37 13 62 32 133
103 71 71 90 95 103 131 8 23 26 57 41 77 25 32 28 47 35 151 10 138 -3 299
-25 321 -13 13 -22 7 -80 -52 -120 -124 -111 -108 -130 -246 -19 -140 -17
-135 -171 -281 -52 -49 -223 -68 -369 -41 -75 14 -114 42 -211 150 -40 44 -46
57 -56 123 -12 79 -7 251 10 306 9 31 30 59 96 125 83 84 86 86 183 102 50 9
106 16 123 16 29 0 73 29 129 85 89 89 94 96 79 111 -16 16 -154 35 -229 32
-25 -1 -74 -3 -110 -5z"/>
</g>
</svg>
